<svg width="104" height="71" viewBox="0 0 104 71" fill="none" xmlns="http://www.w3.org/2000/svg">
<path d="M16.2476 44.626C16.2476 42.5671 16.5161 40.3828 17.0532 38.0732C17.5903 35.7637 18.6198 33.096 20.1416 30.0703C21.6634 27.0446 22.7734 25.2184 23.4717 24.5918C23.6865 24.3949 23.9193 24.2964 24.1699 24.2964C24.4922 24.2964 24.7607 24.4038 24.9756 24.6187C25.2083 24.8335 25.3247 25.0931 25.3247 25.3975C25.3247 25.5765 25.262 25.7734 25.1367 25.9883C23.1673 29.6048 21.7619 32.8812 20.9204 35.8174C20.0789 38.7536 19.6582 41.6898 19.6582 44.626C19.6582 47.5801 20.0789 50.5252 20.9204 53.4614C21.7619 56.3976 23.1673 59.665 25.1367 63.2637C25.262 63.4785 25.3247 63.6755 25.3247 63.8545C25.3247 64.1589 25.2083 64.4185 24.9756 64.6333C24.7607 64.866 24.4922 64.9824 24.1699 64.9824C23.9193 64.9824 23.6865 64.884 23.4717 64.687C22.8092 64.0783 21.7261 62.2969 20.2222 59.3428C18.7183 56.3887 17.6799 53.7747 17.1069 51.501C16.534 49.2272 16.2476 46.9355 16.2476 44.626ZM46.8359 34.7432V40.4365C49.7721 37.7868 51.9653 36.0859 53.4155 35.334C54.8836 34.5641 56.2354 34.1792 57.4707 34.1792C58.8135 34.1792 60.0578 34.6357 61.2036 35.5488C62.3674 36.444 62.9492 37.1243 62.9492 37.5898C62.9492 37.93 62.8328 38.2165 62.6001 38.4492C62.3853 38.6641 62.1077 38.7715 61.7676 38.7715C61.5885 38.7715 61.4364 38.7446 61.311 38.6909C61.1857 38.6193 60.953 38.4134 60.6128 38.0732C59.9862 37.4466 59.4401 37.0169 58.9746 36.7842C58.5091 36.5514 58.0526 36.4351 57.605 36.4351C56.6203 36.4351 55.4297 36.8289 54.0332 37.6167C52.6546 38.4045 50.2555 40.3291 46.8359 43.3906V55.7441H56.8262C57.3812 55.7441 57.7751 55.8516 58.0078 56.0664C58.2406 56.2633 58.3569 56.5319 58.3569 56.8721C58.3569 57.1943 58.2406 57.4629 58.0078 57.6777C57.7751 57.8926 57.3812 58 56.8262 58H39.1284C38.5913 58 38.2064 57.9015 37.9736 57.7046C37.7409 57.4897 37.6245 57.2212 37.6245 56.8989C37.6245 56.5946 37.7319 56.3439 37.9468 56.147C38.1795 55.9321 38.5734 55.8247 39.1284 55.8247H44.5801V37.0259H40.4175C39.8804 37.0259 39.4954 36.9185 39.2627 36.7036C39.0299 36.4888 38.9136 36.2113 38.9136 35.8711C38.9136 35.5488 39.021 35.2803 39.2358 35.0654C39.4686 34.8506 39.8625 34.7432 40.4175 34.7432H46.8359ZM83.2251 44.6528C83.2251 46.7118 82.9565 48.896 82.4194 51.2056C81.8823 53.4972 80.8529 56.1559 79.3311 59.1816C77.8092 62.2253 76.6992 64.0514 76.001 64.6602C75.7861 64.875 75.5534 64.9824 75.3027 64.9824C74.9805 64.9824 74.703 64.866 74.4702 64.6333C74.2554 64.4185 74.1479 64.1589 74.1479 63.8545C74.1479 63.6755 74.2106 63.4785 74.3359 63.2637C76.3053 59.665 77.7108 56.3976 78.5522 53.4614C79.3937 50.5252 79.8145 47.589 79.8145 44.6528C79.8145 41.6987 79.3937 38.7536 78.5522 35.8174C77.7108 32.8812 76.3053 29.6048 74.3359 25.9883C74.2106 25.7734 74.1479 25.5765 74.1479 25.3975C74.1479 25.0931 74.2554 24.8335 74.4702 24.6187C74.703 24.4038 74.9805 24.2964 75.3027 24.2964C75.5534 24.2964 75.7861 24.3949 76.001 24.5918C76.6634 25.2005 77.7466 26.9819 79.2505 29.936C80.7544 32.8901 81.7928 35.5041 82.3657 37.7778C82.9386 40.0516 83.2251 42.3433 83.2251 44.6528Z" fill="#745885"/>
<path d="M41.5773 16.3631C44.8016 17.8852 46.7261 20.6967 48.0213 24.6383C43.3693 26.7239 39.0549 26.1145 36.7518 25.0273C34.4487 23.9401 31.6029 20.6937 30.5176 16.3754C34.75 15.0432 38.3529 14.841 41.5773 16.3631Z" fill="#745885"/>
<path d="M54.4451 9.3156C54.5577 12.7477 52.8675 15.7229 49.8373 18.7233C45.7207 15.8568 44.2519 11.9596 44.1715 9.5081C44.091 7.05663 45.749 3.10079 49.2259 0.0920696C52.4492 2.97525 54.3324 5.88354 54.4451 9.3156Z" fill="#745885"/>
<path d="M40.8638 7.85172C41.8147 9.89954 41.6691 12.0556 40.8031 14.5121C37.8268 13.6586 36.0197 11.6187 35.3406 10.156C34.6614 8.69329 34.5353 5.95218 35.6415 3.39541C38.1375 4.44937 39.913 5.8039 40.8638 7.85172Z" fill="#745885"/>
<path d="M62.4781 10.4994C61.343 12.4582 59.4625 13.6346 56.9013 14.4341C55.8321 11.6246 56.4486 9.00916 57.2594 7.61006C58.0701 6.21095 60.2749 4.47488 63.063 3.80094C63.6784 6.35924 63.6131 8.54066 62.4781 10.4994Z" fill="#745885"/>
<path d="M61.9976 25.5298C58.6809 26.8872 55.0781 26.5117 50.9054 24.9819C52.0383 20.3557 55.2588 17.6502 57.6279 16.6806C59.9969 15.711 64.5473 15.6987 68.9101 17.6132C67.3972 21.4699 65.3143 24.1724 61.9976 25.5298Z" fill="#745885"/>
</svg>
